# xmcd CD database file
#
# Track frame offsets:
#	150
#	12868
#	24425
#	36037
#	48499
#	59688
#	71754
#	81834
#	94408
#	106269
#	117830
#	129812
#	139498
#	152711
#	164188
#	175063
#	186373
#	198904
#	212162
#	221915
#	232455
#	241618
#	248833
#	257931
#	269780
#	281551
#	291872
#	302716
#	314561
#	329425
#
# Disc length: 4520 seconds
#
# Revision: 1
# Processed by: cddbd v1.5.2PL0 Copyright (c) Steve Scherf et al.
# Submitted via: CDex 1.51
#
DISCID=d911a61e
DTITLE=Various Artist - Goin' Down To Louisiana
DYEAR=2001
DGENRE=Blues
TTITLE0=Juke Boy Bonner - Can't Hardly Keep From Crying
TTITLE1=Juke Boy Bonner - I'm Not Jiving
TTITLE2=Juke Boy Bonner - My Time To Go
TTITLE3=Juke Boy Bonner - Life Is A Dirty Deal
TTITLE4=Juke Boy Bonner - Let's Boogie
TTITLE5=Juke Boy Bonner - Just Got To Take A Ride
TTITLE6=Juke Boy Bonner - Going Crazy About You
TTITLE7=Juke Boy Bonner - Blue River Rising
TTITLE8=Ashton Savoy - Need Shorter Hours
TTITLE9=Ashton Savoy - Want To Talk To You Baby
TTITLE10=Ashton Savoy - Tell Me Baby
TTITLE11=Al Smith - I Love Her So
TTITLE12=Al Smith - If I Don't See You
TTITLE13=Al Smith - You Wanta Do Me Wrong
TTITLE14=Al Smith - Burning Sensation
TTITLE15=Al Smith - Down, Down
TTITLE16=Tal Miller - Life's Journey
TTITLE17=Tal Miller - Mean Old Kokamoo
TTITLE18=Hop Wilson - That Wouldn't Satisfy
TTITLE19=Hop Wilson - Chicken Stuff
TTITLE20=Big Chenier - The Dog And His Puppies
TTITLE21=Big Chenier - Going To The City
TTITLE22=Big Chenier - Let Me Hold Your Hand
TTITLE23=Big Chenier - Please Try To Realize
TTITLE24=Big Chenier - I Wanna Know, I Know Now
TTITLE25=Big Chenier - Come On Little Girl
TTITLE26=Juke Boy Bonner - Call Me Juke Boy
TTITLE27=Juke Boy Bonner - True Love's Waiting
TTITLE28=Tal Miller - B-A-B-Y
TTITLE29=Ashton Savoy - Rooster Strut
EXTD=Goldband CDCHD 821 YEAR: 2001
EXTT0=
EXTT1=
EXTT2=
EXTT3=
EXTT4=
EXTT5=
EXTT6=
EXTT7=
EXTT8=
EXTT9=
EXTT10=
EXTT11=
EXTT12=
EXTT13=
EXTT14=
EXTT15=
EXTT16=
EXTT17=
EXTT18=
EXTT19=
EXTT20=
EXTT21=
EXTT22=
EXTT23=
EXTT24=
EXTT25=
EXTT26=
EXTT27=
EXTT28=
EXTT29=
PLAYORDER=
